<svg width="929" height="372" viewBox="0 0 929 372" fill="none" xmlns="http://www.w3.org/2000/svg">
<path d="M54.432 220.28H156.672C157.824 214.808 158.4 209.048 158.4 203C158.4 159.512 127.296 126.968 85.248 126.968C39.744 126.968 8.64 160.088 8.64 203C8.64 245.912 39.168 279.032 88.416 279.032C115.776 279.032 137.088 268.952 151.2 249.368L116.64 229.496C110.88 235.832 100.8 240.44 88.992 240.44C73.152 240.44 59.904 235.256 54.432 220.28ZM53.568 188.024C57.6 173.336 68.544 165.272 84.96 165.272C97.92 165.272 110.88 171.32 115.488 188.024H53.568ZM286.04 73.4V144.536C276.536 133.592 262.424 126.968 243.128 126.968C205.4 126.968 174.296 160.088 174.296 203C174.296 245.912 205.4 279.032 243.128 279.032C262.424 279.032 276.536 272.408 286.04 261.464V275H329.24V73.4H286.04ZM251.768 238.136C231.896 238.136 217.496 224.6 217.496 203C217.496 181.4 231.896 167.864 251.768 167.864C271.64 167.864 286.04 181.4 286.04 203C286.04 224.6 271.64 238.136 251.768 238.136ZM453.958 131V209.624C453.958 230.072 443.014 239.288 427.174 239.288C413.35 239.288 402.118 230.936 402.118 213.08V131H358.918V219.416C358.918 258.296 383.686 279.032 412.774 279.032C431.782 279.032 446.182 272.12 453.958 261.464V275H497.158V131H453.958ZM690.12 126.968C669.672 126.968 656.424 134.456 648.36 145.976C640.296 133.88 627.624 126.968 610.632 126.968C591.336 126.968 578.664 134.456 572.04 144.248V131H528.84V275H572.04V193.784C572.04 176.792 580.104 166.712 594.504 166.712C608.328 166.712 615.24 175.928 615.24 190.328V275H658.44V193.784C658.44 176.792 666.504 166.712 680.904 166.712C694.728 166.712 701.64 175.928 701.64 190.328V275H744.84V186.584C744.84 150.584 723.24 126.968 690.12 126.968ZM843.491 279.032C885.827 279.032 919.811 245.912 919.811 203C919.811 160.088 885.827 126.968 843.491 126.968C801.155 126.968 767.171 160.088 767.171 203C767.171 245.912 801.155 279.032 843.491 279.032ZM843.491 236.984C824.771 236.984 810.371 223.448 810.371 203C810.371 182.552 824.771 169.016 843.491 169.016C862.211 169.016 876.611 182.552 876.611 203C876.611 223.448 862.211 236.984 843.491 236.984Z" fill="#575757"/>
<rect x="286" y="302" width="43" height="42" fill="url(#paint0_linear)"/>
<rect x="702" y="302" width="43" height="42" fill="url(#paint1_linear)"/>
<rect x="286" y="372" width="43" height="459" transform="rotate(-90 286 372)" fill="url(#paint2_linear)"/>
<rect x="329" y="302" width="373" height="27" fill="white"/>
<defs>
<linearGradient id="paint0_linear" x1="286" y1="318" x2="329" y2="318" gradientUnits="userSpaceOnUse">
<stop stop-color="#0173FF"/>
<stop offset="1" stop-color="#017AFF"/>
</linearGradient>
<linearGradient id="paint1_linear" x1="702" y1="324" x2="745" y2="324" gradientUnits="userSpaceOnUse">
<stop stop-color="#01BFFF"/>
<stop offset="1" stop-color="#01C6FF"/>
</linearGradient>
<linearGradient id="paint2_linear" x1="307" y1="831" x2="307" y2="372" gradientUnits="userSpaceOnUse">
<stop stop-color="#00C6FF"/>
<stop offset="1" stop-color="#0072FF"/>
</linearGradient>
</defs>
</svg>
