<?xml version="1.0" encoding="UTF-8"?><svg version="1.1" id="Layer_1" xmlns="http://www.w3.org/2000/svg" xmlns:xlink="http://www.w3.org/1999/xlink" x="0px" y="0px" viewBox="0 0 1000 1000" style="enable-background:new 0 0 1000 1000;" xml:space="preserve" width="1000px" height="1000px">

<g>
	<g id="Layer_1_1_">
		<path d="M285.7,654h467.4c8.3,0,15,6.7,15,15l0,0c0,8.3-6.7,15-15,15H285.7c-8.3,0-15-6.7-15-15l0,0
			C270.7,660.7,277.4,654,285.7,654z" style="opacity:0.34;fill:#353535;enable-background:new    ;"/>
		<path d="M375.7,281.9h236c9.9,0,18,8.1,18,18v304.8c0,9.9-8.1,18-18,18h-236c-9.9,0-18-8.1-18-18V299.9
			C357.7,289.9,365.8,281.9,375.7,281.9z" style="fill:#F7E4CB;"/>
		<path d="M375.7,281.9h236c9.9,0,18,8.1,18,18v304.8c0,9.9-8.1,18-18,18h-236c-9.9,0-18-8.1-18-18V299.9
			C357.7,289.9,365.8,281.9,375.7,281.9z" style="fill:#E0C5AA;"/>
		<path d="M617.7,309.9v280c0,5.7-4.6,10.2-10.2,10.2H380c-5.7,0-10.2-4.6-10.2-10.2v-280c0-5.7,4.6-10.2,10.2-10.2
			h227.5C613.1,299.7,617.7,304.3,617.7,309.9z" style="fill:#F7E4CB;"/>
		<g>
			<path d="M611.7,625.7h-236c-11.6,0-21-9.4-21-21V299.9c0-11.6,9.4-21,21-21h236c11.6,0,21,9.4,21,21v304.8
				C632.7,616.3,623.3,625.7,611.7,625.7z M375.7,284.9c-8.3,0-15,6.7-15,15v304.8c0,8.3,6.7,15,15,15h236c8.3,0,15-6.7,15-15V299.9
				c0-8.3-6.7-15-15-15H375.7z" style="fill:#353535;"/>
		</g>
		<path d="M602.7,326.4V489c0,5.4-4.3,9.7-9.7,9.7H394.4c-5.4,0-9.7-4.3-9.7-9.7V326.4c0-5.4,4.3-9.7,9.7-9.7H593
			C598.4,316.7,602.7,321,602.7,326.4z" style="fill:#E0C5AA;"/>
		<path d="M592.3,344.4v126.4c0,9.5-7.7,17.2-17.2,17.2H412.4c-9.5,0-17.2-7.7-17.2-17.2V344.4
			c0-9.5,7.7-17.2,17.2-17.2H575C584.6,327.2,592.3,334.9,592.3,344.4z" style="fill:#353535;"/>
		<path d="M575,327.2h-20.2c3.6,7.6,5.5,15.8,5.5,24.2l0,0c0,57.8-46.9,104.7-104.7,104.7l0,0h-36.2
			c-8.4,0-16.6-1.9-24.2-5.5v20.2c0,9.5,7.7,17.2,17.2,17.2c0,0,0,0,0,0H575c9.5,0,17.2-7.7,17.2-17.2c0,0,0,0,0,0V344.4
			C592.3,334.9,584.5,327.2,575,327.2z" style="opacity:0.3;fill:#282828;enable-background:new    ;"/>
		<path d="M564.2,539.7v-3.1h-68.8v-12h68.8v-3.1c0-1,0.8-1.9,1.9-1.9h36.2c1,0,1.9,0.8,1.9,1.9c0,0,0,0,0,0v18.2
			c0,1-0.8,1.9-1.9,1.9l0,0h-36.2C565,541.6,564.2,540.8,564.2,539.7z" style="fill:#E0C5AA;"/>
		<rect x="594.7" y="527.6" width="4.3" height="6" style="fill:#353535;"/>
		<g>
			<path d="M412.8,576.9h-19.4c-1.6,0-2.9-1.3-2.9-2.9v-19.4c0-1.6,1.3-2.9,2.9-2.9h19.4c1.6,0,2.9,1.3,2.9,2.9V574
				C415.7,575.6,414.4,576.9,412.8,576.9z M393.4,553.7c-0.5,0-0.9,0.4-0.9,0.9V574c0,0.5,0.4,0.9,0.9,0.9h19.4
				c0.5,0,0.9-0.4,0.9-0.9v-19.4c0-0.5-0.4-0.9-0.9-0.9H393.4z" style="fill:#353535;"/>
		</g>
		<path d="M658.4,669c0-9.9,10.5-18,23.5-18s23.5,8.1,23.5,18H658.4z" style="fill:#F2EBE1;"/>
		<g>
			<path d="M705.4,672h-47c-1.7,0-3-1.3-3-3c0-11.6,11.9-21,26.5-21s26.5,9.4,26.5,21C708.4,670.6,707,672,705.4,672z
				 M661.8,666H702c-1.9-6.8-10.2-12-20.1-12S663.7,659.2,661.8,666z" style="fill:#353535;"/>
		</g>
		<rect x="374.7" y="623.9" width="238" height="24" style="fill:#E0C5AA;"/>
		<rect x="374.7" y="623.9" width="238" height="9.9" style="fill:#C6A485;"/>
		<g>
			<path d="M612.7,650.9h-238c-1.7,0-3-1.3-3-3v-24c0-1.7,1.3-3,3-3h238c1.7,0,3,1.3,3,3v24
				C615.7,649.6,614.4,650.9,612.7,650.9z M377.7,644.9h232v-18h-232V644.9z" style="fill:#353535;"/>
		</g>
		<rect x="417.7" y="639" width="152" height="12" style="fill:#E0C5AA;"/>
		<rect x="607.7" y="639" width="20" height="12" style="fill:#E0C5AA;"/>
		<rect x="578.7" y="639" width="20" height="12" style="fill:#E0C5AA;"/>
		<rect x="388.7" y="639" width="20" height="12" style="fill:#E0C5AA;"/>
		<rect x="359.7" y="639" width="20" height="12" style="fill:#E0C5AA;"/>
		<rect x="339.5" y="651" width="308.3" height="18" style="fill:#F7E4CB;"/>
		<g>
			<path d="M647.9,672H339.5c-1.7,0-3-1.3-3-3v-18c0-1.7,1.3-3,3-3h308.3c1.7,0,3,1.3,3,3v18
				C650.9,670.6,649.5,672,647.9,672z M342.5,666h302.3v-12H342.5V666z" style="fill:#353535;"/>
		</g>
		<g>
			<path d="M569.7,654h-152c-1.7,0-3-1.3-3-3v-12c0-1.7,1.3-3,3-3h152c1.7,0,3,1.3,3,3v12
				C572.7,652.6,571.4,654,569.7,654z M420.7,648h146v-6h-146V648z" style="fill:#353535;"/>
		</g>
		<g>
			<path d="M627.7,654h-20c-1.7,0-3-1.3-3-3v-12c0-1.7,1.3-3,3-3h20c1.7,0,3,1.3,3,3v12
				C630.7,652.6,629.4,654,627.7,654z M610.7,648h14v-6h-14V648z" style="fill:#353535;"/>
		</g>
		<g>
			<path d="M598.7,654h-20c-1.7,0-3-1.3-3-3v-12c0-1.7,1.3-3,3-3h20c1.7,0,3,1.3,3,3v12
				C601.7,652.6,600.4,654,598.7,654z M581.7,648h14v-6h-14V648z" style="fill:#353535;"/>
		</g>
		<g>
			<path d="M408.7,654h-20c-1.7,0-3-1.3-3-3v-12c0-1.7,1.3-3,3-3h20c1.7,0,3,1.3,3,3v12
				C411.7,652.6,410.4,654,408.7,654z M391.7,648h14v-6h-14V648z" style="fill:#353535;"/>
		</g>
		<g>
			<path d="M379.7,654h-20c-1.7,0-3-1.3-3-3v-12c0-1.7,1.3-3,3-3h20c1.7,0,3,1.3,3,3v12
				C382.7,652.6,381.4,654,379.7,654z M362.7,648h14v-6h-14V648z" style="fill:#353535;"/>
		</g>
		<path d="M405.3,562.5c-0.9-0.8-1.5-1.9-1.8-3.1h-6.3c-0.8,0.9-1.3,2-1.6,3.1H405.3z" style="fill:#CF9742;"/>
		<path d="M403.3,558.1c0-0.5,0.1-1,0.2-1.5c-0.1,0-0.3,0-0.4,0c-2.3,0-4.5,1-5.9,2.8h6.3
			C403.4,558.9,403.3,558.5,403.3,558.1z" style="fill:#6E9546;"/>
		<path d="M397.2,569.3H409c0.8-0.9,1.3-2,1.6-3.1h-15C395.9,567.3,396.5,568.4,397.2,569.3z" style="fill:#7C4D83;"/>
		<path d="M403.1,572c2.3,0,4.4-1,5.9-2.7h-11.8C398.7,571,400.9,572,403.1,572z" style="fill:#4D8DB9;"/>
		<path d="M395.4,564.3c0,0.6,0.1,1.2,0.2,1.9h15c0.2-0.6,0.2-1.2,0.2-1.9c0-0.1,0-0.3,0-0.4c-2,0.5-4.1,0-5.6-1.4
			h-9.6C395.5,563.1,395.4,563.7,395.4,564.3z" style="fill:#CB6757;"/>
		<g>
			<path d="M439.3,352.2h-16.1c-2.2,0-4-1.8-4-4s1.8-4,4-4h16.1c2.2,0,4,1.8,4,4S441.5,352.2,439.3,352.2z" style="fill:#FFFFFF;"/>
		</g>
		<g>
			<path d="M513.4,352.2H456c-2.2,0-4-1.8-4-4s1.8-4,4-4h57.4c2.2,0,4,1.8,4,4S515.6,352.2,513.4,352.2z" style="fill:#FFFFFF;"/>
		</g>
		<path d="M569.5,522.9h27.6c1,0,1.9,0.8,1.9,1.9l0,0v4.8l0,0h-31.4l0,0v-4.8C567.6,523.8,568.4,522.9,569.5,522.9
			L569.5,522.9z" style="fill:#353535;"/>
		<path d="M567.6,530.6H599l0,0v5.8c0,1-0.8,1.9-1.9,1.9l0,0h-27.6c-1,0-1.9-0.8-1.9-1.9l0,0V530.6L567.6,530.6z" style="fill:#353535;"/>
		<path d="M500.5,527.6h94.6c0.5,0,1,0.4,1,1v4.1c0,0.5-0.4,1-1,1h-94.6c-0.5,0-1-0.4-1-1v-4.1
			C499.5,528,500,527.6,500.5,527.6z" style="fill:#282828;"/>
	</g>
</g>
</svg>